<svg width="32" height="32" viewBox="0 0 32 32" fill="none" xmlns="http://www.w3.org/2000/svg">
<path fill-rule="evenodd" clip-rule="evenodd" d="M14.7998 5H16.5998V5.80001H18.3999V7.80001H14.8999V8.50001H17.4999L18.4999 9.50001V12.2L17.4999 13.2H16.6001V14H14.8001V13.2H12.9999V11.2H16.4999V10.5H13.8999L12.8999 9.50001V6.80001L13.8999 5.80001H14.7998V5ZM5 16H10V17H16C17.6569 17 19 18.3431 19 20C19 21.6569 17.6569 23 16 23H13V21H16C16.5523 21 17 20.5523 17 20C17 19.4477 16.5523 19 16 19H10V24H11.4142L12.0082 24.594C12.2285 24.8143 12.5388 24.9193 12.8475 24.8781L25.017 23.2556C25.5797 23.1805 26 22.7005 26 22.1327C26 21.5071 25.4929 21 24.8673 21H20V19H24.8673C26.5974 19 28 20.4026 28 22.1327C28 23.7029 26.8377 25.0305 25.2813 25.238L13.1118 26.8606C12.1856 26.9841 11.2548 26.669 10.594 26.0082L10.5858 26H10V27H5L4 26V17L5 16ZM8 25V18H6V25H8Z" fill="#C21F48"/>
</svg>
